<svg id="White" xmlns="http://www.w3.org/2000/svg" viewBox="0 0 4086.28 2150.15"><defs><style>.cls-1{fill:none;}.cls-2{fill:#fff;}</style></defs><title>Portalロゴ案のコピー</title><polygon class="cls-1" points="2572.38 268.69 2483.57 235.58 2451.12 317.5 2540.7 348.65 2572.38 268.69"/><polygon class="cls-1" points="2347.49 184.85 2250.14 148.56 2215.65 235.63 2313.85 269.78 2347.49 184.85"/><polygon class="cls-1" points="2239.74 456.9 2378.84 500.58 2356.9 555.38 2393.98 566.94 2457.77 407.42 2402.88 388.88 2420.47 342.99 2318.33 307.1 2299.67 354.04 2245.35 335.7 2179.5 501.96 2217.35 513.43 2239.74 456.9"/><path class="cls-2" d="M7680.17,1399.81,7301.42,2356,6828.53,3550H9044.37L9580.15,2150Zm297.26,235.58,88.81,33.11-31.67,80L7945,1717.31Zm-233.43-87,97.36,36.29-33.64,84.93-98.21-34.15Zm-4.78,187.13,54.32,18.34,18.66-46.93,102.13,35.89-17.59,45.89,54.9,18.54-63.79,159.52-37.09-11.56,21.94-54.8-139.1-43.68-22.39,56.52-37.85-11.47Z" transform="translate(-5493.87 -1399.81)"/><polygon class="cls-2" points="1758.6 944.05 705.29 682.39 556.54 645.44 974.91 1454.48 1304.21 2091.26 1758.6 944.05"/><polygon class="cls-2" points="524.4 692.15 0 1454.48 918.62 1454.48 524.4 692.15"/></svg>