<svg xmlns="http://www.w3.org/2000/svg" width="256" viewBox="0 0 4086.28 3349.53"><defs><style>.a{fill:#4bb787;}.b{fill:#57beb4;}.c{fill:#fff;}.d{fill:#4baf82;}</style></defs><title>logo_hero</title><polygon class="a" points="0 1454.48 3813.31 1454.48 556.54 645.44 0 1454.48"/><polygon class="b" points="556.54 645.44 1334.66 2150.15 3550.5 2150.15 3813.31 1454.48 556.54 645.44"/><polygon class="a" points="2186.3 0 1334.66 2150.15 3550.5 2150.15 4086.28 750.23 2186.3 0"/><polygon class="c" points="2250.14 148.56 2215.65 235.63 2313.85 269.78 2347.49 184.85 2250.14 148.56"/><polygon class="c" points="2483.57 235.58 2572.38 268.69 2540.7 348.65 2451.12 317.5 2483.57 235.58"/><polyline class="c" points="2318.33 307.1 2420.47 342.99 2402.88 388.88 2457.77 407.42 2393.98 566.94 2356.9 555.38 2378.84 500.58 2239.74 456.9 2217.35 513.42 2179.5 501.96 2245.35 335.7 2299.67 354.04 2318.33 307.1"/><path class="d" d="M1040.14,3893.06v-740.6h390.39l122.74,70.88v330.09l-122.74,70.89H1188.25v268.74Zm148.11-613.64v217.95h216.89V3279.42Z" transform="translate(-456.86 -548.82)"/><path class="d" d="M2161.54,3827.46l-122.71,70.89H1813.47l-122.74-70.89V3429.65l122.74-70.89h225.36l122.71,70.89Zm-325.85-344.9v292h180.92v-292Z" transform="translate(-456.86 -548.82)"/><path class="d" d="M2647.09,3487.84h-182v405.22H2320.17v-529h119.56l25.39,43.37,75.11-43.37h106.86Z" transform="translate(-456.86 -548.82)"/><path class="d" d="M2710.53,3487.84V3364.06h97.33v-88.88l144.95-83.58v172.46h116.37v123.78H2952.81v281.43h116.37v123.79H2930.59l-122.73-70.89V3487.84Z" transform="translate(-456.86 -548.82)"/><path class="d" d="M3308.24,3898.35l-122.73-70.89v-183l122.73-70.89h171.39v-85.7H3238.41V3364.06h263.44L3624.58,3435v463.4h-69.82L3479.63,3855l-75.11,43.39Zm22.22-213.72v92h149.17v-92Z" transform="translate(-456.86 -548.82)"/><path class="d" d="M3906,3893.06l-122.74-70.89V3120.71h145v648.56H4034v123.79Z" transform="translate(-456.86 -548.82)"/></svg>